# Blender v3.0.0 OBJ File: 'box.blend'
# www.blender.org
mtllib box.mtl
o Cube
v 1.000000 0.291970 3.952130
v 1.000000 0.291970 -0.006269
v 1.000000 -0.291970 3.952130
v 1.000000 -0.291970 -0.006269
v -1.000000 0.291970 3.952130
v -1.000000 0.291970 -0.006269
v -1.000000 -0.291970 3.952130
v -1.000000 -0.291970 -0.006269
vt 0.000188 0.788801
vt 0.347250 0.687470
vt 0.347250 0.788801
vt 0.694689 0.687094
vt 0.347626 0.000188
vt 0.694689 0.000188
vt 0.898104 0.687093
vt 0.796772 0.000188
vt 0.898104 0.000188
vt 0.898480 0.000188
vt 0.999812 0.347250
vt 0.898480 0.347250
vt 0.796396 0.687093
vt 0.695065 0.000188
vt 0.796397 0.000188
vt 0.347250 0.687094
vt 0.000188 0.000188
vt 0.347251 0.000188
vt 0.000188 0.687470
vt 0.347626 0.687094
vt 0.796772 0.687093
vt 0.999812 0.000188
vt 0.695065 0.687093
vt 0.000188 0.687094
vn 0.0000 0.0000 1.0000
vn 0.0000 -1.0000 0.0000
vn -1.0000 0.0000 0.0000
vn 0.0000 0.0000 -1.0000
vn 1.0000 0.0000 0.0000
vn 0.0000 1.0000 0.0000
usemtl uv_test_pattern
s off
f 5/1/1 3/2/1 1/3/1
f 3/4/2 8/5/2 4/6/2
f 7/7/3 6/8/3 8/9/3
f 2/10/4 8/11/4 6/12/4
f 1/13/5 4/14/5 2/15/5
f 5/16/6 2/17/6 6/18/6
f 5/1/1 7/19/1 3/2/1
f 3/4/2 7/20/2 8/5/2
f 7/7/3 5/21/3 6/8/3
f 2/10/4 4/22/4 8/11/4
f 1/13/5 3/23/5 4/14/5
f 5/16/6 1/24/6 2/17/6
